<svg xmlns="http://www.w3.org/2000/svg" viewBox="0 0 140.25 140.38"><title>pokeball_loader</title><path d="M90,20a15,15,0,0,0-30,0" transform="translate(-4.88 -4.75)" style="fill:#ed1c24;stroke:#1a1a1a;stroke-miterlimit:10;stroke-width:0.5px"/><path d="M60,20a15,15,0,0,0,30,0" transform="translate(-4.88 -4.75)" style="fill:#e6e6e6;stroke:#1a1a1a;stroke-miterlimit:10;stroke-width:0.5px"/><circle cx="36.11" cy="36.11" r="15" transform="translate(-19.83 31.36) rotate(-45)" style="fill:#e6e6e6;stroke:#b3b3b3;stroke-miterlimit:10;stroke-width:0.25px"/><circle cx="15.13" cy="70.25" r="15" style="fill:#e6e6e6;stroke:#b3b3b3;stroke-miterlimit:10;stroke-width:0.25px"/><circle cx="36.11" cy="113.89" r="15" transform="translate(-74.83 54.14) rotate(-45)" style="fill:#e6e6e6;stroke:#b3b3b3;stroke-miterlimit:10;stroke-width:0.25px"/><circle cx="70.12" cy="125.25" r="15" style="fill:#e6e6e6;stroke:#b3b3b3;stroke-miterlimit:10;stroke-width:0.25px"/><circle cx="113.89" cy="113.89" r="15" transform="translate(-52.05 109.14) rotate(-45)" style="fill:#e6e6e6;stroke:#b3b3b3;stroke-miterlimit:10;stroke-width:0.25px"/><circle cx="125.13" cy="70.25" r="15" style="fill:#e6e6e6;stroke:#b3b3b3;stroke-miterlimit:10;stroke-width:0.25px"/><circle cx="113.89" cy="36.11" r="15" transform="translate(2.95 86.36) rotate(-45)" style="fill:#e6e6e6;stroke:#b3b3b3;stroke-miterlimit:10;stroke-width:0.25px"/><circle cx="70.13" cy="15.25" r="4.5" style="fill:#ccc;stroke:#1a1a1a;stroke-miterlimit:10;stroke-width:0.75px"/><circle cx="70.13" cy="15.25" r="2.5" style="fill:#e6e6e6;stroke:#000;stroke-miterlimit:10;stroke-width:0.25px"/><line x1="55.13" y1="15.25" x2="65.63" y2="15.25" style="fill:#ed1c24;stroke:#1a1a1a;stroke-miterlimit:10;stroke-width:2px"/><line x1="74.63" y1="15.25" x2="85.13" y2="15.25" style="fill:#ed1c24;stroke:#1a1a1a;stroke-miterlimit:10;stroke-width:2px"/><path d="M72.31,7.4c1.06,1,.58,2.74-1.08,4s-3.85,1.48-4.91.53-.58-2.74,1.08-4S71.25,6.45,72.31,7.4Z" transform="translate(-4.88 -4.75)" style="fill:#f2f2f2"/></svg>